<svg class="svg-icon" style="width: 1.0009765625em; height: 1em;vertical-align: middle;fill: currentColor;overflow: hidden;" viewBox="0 0 1025 1024" version="1.1" xmlns="http://www.w3.org/2000/svg"><path d="M512.70912 979.19872 148.66176 794.62016 148.66176 636.86656l-81.64736-42.03648 65.08672-177.69984L0.64 260.32384 407.1232 47.45088l107.90016 140.29056L627.42784 47.36 1024.64 263.6736l-124.17408 152.75008 73.48992 176.66048-90.67264 45.0688 0 155.25376L512.70912 979.19872zM208.29952 761.32608l304.42112 148.91648 309.83936-152.78208 0.43648-89.3376L560.61056 798.54976l-45.85216-137.90976-48.46976 139.74656L207.53664 667.17312 208.29952 761.32608zM140.09472 566.31424l292.83968 150.76224 42.13888-121.50272L181.75104 452.57856 140.09472 566.31424zM555.168 595.76576l39.89248 119.98976 303.47648-150.85056-47.00032-112.98304L555.168 595.76576zM230.31296 410.8352 515.2832 549.76l286.25664-138.93376-286.87232-147.6736L230.31296 410.8352zM92.64128 278.52416l80.33664 95.82592 293.95968-152.66944-76.30848-99.2128L92.64128 278.52416zM563.01056 221.90208l295.95392 152.34688 75.41248-92.77184L642.55744 122.55872 563.01056 221.90208z"  /></svg>